<svg width="65" height="65" viewBox="0 0 65 65" fill="none" xmlns="http://www.w3.org/2000/svg">
<path d="M0 24C0 15.5992 0 11.3988 1.6349 8.19014C3.073 5.36771 5.36771 3.073 8.19014 1.6349C11.3988 0 15.5992 0 24 0H41C49.4008 0 53.6012 0 56.8099 1.6349C59.6323 3.073 61.927 5.36771 63.3651 8.19014C65 11.3988 65 15.5992 65 24V41C65 49.4008 65 53.6012 63.3651 56.8099C61.927 59.6323 59.6323 61.927 56.8099 63.3651C53.6012 65 49.4008 65 41 65H24C15.5992 65 11.3988 65 8.19014 63.3651C5.36771 61.927 3.073 59.6323 1.6349 56.8099C0 53.6012 0 49.4008 0 41V24Z" fill="#45A4DE"/>
<path fill-rule="evenodd" clip-rule="evenodd" d="M38.3229 14.3194C40.7112 13.9936 41.9054 13.8308 42.3955 14.2649C42.7975 14.621 42.9714 15.2437 42.8119 15.7565C42.6176 16.3818 41.2997 16.953 38.6638 18.0954C34.1234 20.0632 29.8696 22.9033 26.1574 26.6155C22.4452 30.3277 19.6051 34.5816 17.6372 39.122C16.4949 41.7579 15.9237 43.0758 15.2984 43.2701C14.7856 43.4296 14.1629 43.2557 13.8068 42.8537C13.3727 42.3636 13.5355 41.1694 13.8613 38.781C14.6764 32.8041 17.3825 27.0337 21.979 22.4372C26.5755 17.8407 32.3459 15.1346 38.3229 14.3194Z" fill="white"/>
<path d="M16.3487 18.1911L16.1346 22.6345C16.1064 23.2194 16.0923 23.5119 16.1993 23.6461C16.2921 23.7624 16.4358 23.826 16.5843 23.8165C16.7555 23.8055 16.9626 23.5985 17.3767 23.1843L22.7264 17.8346C23.1405 17.4205 23.3476 17.2135 23.3585 17.0422C23.3681 16.8938 23.3044 16.75 23.1881 16.6573C23.0539 16.5503 22.7615 16.5644 22.1765 16.5925L17.7331 16.8066C17.2666 16.8291 17.0334 16.8403 16.8529 16.9367C16.6939 17.0217 16.5637 17.1518 16.4788 17.3108C16.3824 17.4914 16.3712 17.7246 16.3487 18.1911Z" fill="url(#paint0_linear)"/>
<path d="M27.95 33.3254C27.0983 32.5376 26.6724 32.1437 26.5075 31.6796C26.3625 31.2716 26.3539 30.8276 26.4829 30.4142C26.6296 29.944 27.0398 29.5338 27.8601 28.7135L28.2554 28.3182C29.0758 27.4978 29.486 27.0876 29.9561 26.9409C30.3695 26.8119 30.8136 26.8206 31.2216 26.9656C31.6857 27.1305 32.0796 27.5563 32.8673 28.408L47.7804 44.5309C48.1606 44.9419 48.3506 45.1474 48.4673 45.3571C48.817 45.9859 48.8021 46.7541 48.4281 47.3688C48.3034 47.5738 48.1054 47.7717 47.7096 48.1676C47.3137 48.5635 47.1157 48.7614 46.9107 48.8862C46.296 49.2601 45.5278 49.2751 44.899 48.9254C44.6893 48.8087 44.4838 48.6186 44.0728 48.2385L27.95 33.3254Z" fill="url(#paint1_linear)"/>
<defs>
<linearGradient id="paint0_linear" x1="20.0383" y1="20.5798" x2="15.1688" y2="15.7103" gradientUnits="userSpaceOnUse">
<stop stop-color="white" stop-opacity="0.65"/>
<stop offset="1" stop-color="#F4F4F4" stop-opacity="0.2"/>
</linearGradient>
<linearGradient id="paint1_linear" x1="28.1535" y1="29.7785" x2="49.7947" y2="49.2579" gradientUnits="userSpaceOnUse">
<stop stop-color="white" stop-opacity="0.65"/>
<stop offset="1" stop-color="#F4F4F4" stop-opacity="0.2"/>
</linearGradient>
</defs>
</svg>
